<?xml version="1.0" encoding="utf-8"?>
<!-- Generator: Adobe Illustrator 15.0.0, SVG Export Plug-In . SVG Version: 6.00 Build 0)  -->
<!DOCTYPE svg PUBLIC "-//W3C//DTD SVG 1.1 Tiny//EN" "http://www.w3.org/Graphics/SVG/1.1/DTD/svg11-tiny.dtd">
<svg version="1.1" baseProfile="tiny" id="Layer_2" xmlns="http://www.w3.org/2000/svg" xmlns:xlink="http://www.w3.org/1999/xlink"
	 x="0px" y="0px" width="839.996px" height="839.996px" viewBox="0 0 839.996 839.996" xml:space="preserve">
<path d="M326.516,610.95c5.201,0,9.417,4.216,9.417,9.416c0,5.201-4.216,9.418-9.417,9.418c-5.201,0-9.417-4.217-9.417-9.418
	C317.099,615.166,321.314,610.95,326.516,610.95z M456.683,531.013c-3.896,0-7.054,3.159-7.054,7.055s3.158,7.054,7.054,7.054
	c3.896,0,7.055-3.158,7.055-7.054S460.579,531.013,456.683,531.013z M205.095,323.189c21.134-23.4,46.527-63.825,71.861-90.553
	c8.15,16.465,17.277,31.699,26.692,46.57c-8.426-27.329-16.25-55.417-25.666-81.499
	C254.244,240.235,229.062,280.948,205.095,323.189z M557.217,237.81c-20.988,20.555-43.936,45.537-60.568,67.269
	c19.272-17.542,38.781-34.785,59.542-50.451c5.945,2.874,13.67,10.349,18.479,10.349
	C568.588,256.254,562.533,247.498,557.217,237.81z M839.996,419.998c0,56.694-11.105,111.698-33.011,163.485
	c-21.154,50.015-51.436,94.93-90.004,133.498s-83.483,68.85-133.498,90.004c-51.787,21.905-106.791,33.011-163.485,33.011
	s-111.699-11.105-163.486-33.011c-50.014-21.154-94.929-51.436-133.498-90.004S54.164,633.498,33.01,583.483
	C11.106,531.696,0,476.692,0,419.998s11.106-111.699,33.01-163.486c21.154-50.014,51.437-94.929,90.005-133.498
	s83.483-68.851,133.498-90.005C308.299,11.106,363.304,0,419.998,0s111.698,11.106,163.485,33.01
	c50.015,21.154,94.93,51.437,133.498,90.005s68.85,83.483,90.004,133.498C828.891,308.299,839.996,363.304,839.996,419.998z
	 M22.114,402.006C41.876,382.369,61.998,362.695,82.326,343c-0.458-0.593-1.01-1.212-1.518-2.045c0.904,0.707,1.539,0.707,2.442,0
	c-0.613-1.219-2.7-0.964-2.442-3.054c1.096,0.078,1.288-0.748,2.442-0.61c-0.699,1.253,0.959,2.91,1.221,1.221
	c0.147,0.493,0.385,1.097,0.686,1.743c0.625-0.605,1.248-1.21,1.874-1.815c-2.049-1.638-1.568-3.968-3.781-5.422
	c0.556-1.67,2.14,1.083,3.053-0.61c-0.783-1.049-2.437-1.227-3.053-2.442c0.151-0.769,1.214-0.616,1.221,0
	c1.739-3.274,0.062,0.123,2.442,0.61c0.378-0.642-0.125-4.176,1.832-4.885c1.245,1.091,0.171,2.253,2.442,1.221
	c-1.672,2.629,1.003,3.506,2.353,5.237c0.94-0.908,1.882-1.815,2.823-2.723c-1.982-3.048-4.9-6.104-3.955-9.229
	c3.328-1.548,3.782,6.42,4.274,7.937c0.893-5.531,1.991-10.414,2.442-14.654c0.054-0.508-0.786-1.118-1.222-1.221
	c0.914-1.07,2.548,0.539,3.054-1.832c0.768,0.151,0.616,1.214,0,1.222c0.116,0.692,0.612,0.339,0.61,0
	c0.821,1.486-1.155,2.563,0,5.495c2.798-0.074,2.067-6.167,4.273-4.885c0.878-1.82-2.143-3.72,0.611-3.663
	c-0.447-0.57-1.11-0.925-1.832-1.221c1.131-1.177,1.119-0.483,0.61-2.442c2.485-0.247,2.408,2.069,3.664,3.053
	c0.42,1.641-1.262,1.18-1.832,1.832c1.106,0.58,2.829,1.501,1.221,3.053c2.382-0.932,2.471,0.786,2.791,2.383
	c56.876-54.699,114.877-109.509,171.016-164.114c55.825,48.236,107.493,101.712,162.202,151.354
	c38.52-29.941,75.345-62.018,113.953-91.848c21.278,19.027,40.982,37.979,62.621,59.506c6.43,6.396,13.686,16.277,20.532,19.404
	c9.567,4.37,21.206,0.524,31.826,3.881c12.25,3.872,25.623,18.596,39.01,28.46c3.544,2.611,7.062,5.171,10.566,7.708
	c1.404-2.617-0.03,0.504,2.25,0.971c0.379-0.642-0.125-4.176,1.833-4.885c1.244,1.091,0.17,2.253,2.441,1.221
	c-2.226,3.498,3.247,3.893,3.053,7.327c0.67-1.507,3.383-0.495,3.662,0.61c1.296-4.877-7-9.676-5.494-14.653
	c3.328-1.548,3.782,6.42,4.273,7.937c0.894-5.531,1.992-10.414,2.443-14.654c0.054-0.508-0.785-1.118-1.223-1.221
	c0.915-1.07,2.549,0.539,3.055-1.832c0.768,0.151,0.615,1.214,0,1.222c0.115,0.692,0.612,0.339,0.61,0
	c0.82,1.486-1.155,2.563,0,5.495c2.798-0.074,2.067-6.167,4.273-4.885c0.878-1.82-2.143-3.72,0.61-3.663
	c-0.447-0.57-1.11-0.925-1.831-1.221c1.131-1.177,1.119-0.483,0.61-2.442c2.484-0.247,2.408,2.069,3.663,3.053
	c0.421,1.641-1.262,1.18-1.832,1.832c1.106,0.58,2.83,1.501,1.222,3.053c3.506-1.371,2.043,2.996,3.663,4.274
	c1.214-0.008,0.777-1.666,2.443-1.222c1.316,5.234-1.568,10.865-4.274,14.043c3.629,1.033,4.384-2.393,5.495-5.495
	c4.712,6.261-4.992,7.461-6.106,13.432c0.271,0.544,0.536,1.092,1.222,1.222c0.713-0.917,1.764-1.494,1.832-3.053
	c2.498,2.053,2.434-2.539,5.494-1.832c-0.708-2.684,1.003-4.59,3.053-6.106c-0.601,3.756,1.144,7.79-2.441,6.716
	c-0.003,1.631,1.93,1.327,1.831,3.053c2.522-1.548,3.391-4.75,6.106-6.105c1.431,5.161-3.267,8.749-7.938,9.769
	c-0.1-0.709,0.136-1.087,0.61-1.222c-0.558-1.66-1.135,1.627-3.053,0.611c0.322,0.491,0.637,0.991,0.61,1.831
	c-0.71-0.099-1.086,0.135-1.221,0.611c-0.57-0.449-0.925-1.111-1.221-1.832c-1.776,0.53-0.687,0.914-0.61,2.442
	c-0.753-0.267-1.255-0.782-1.222-1.832c-1.257,1.211-0.575,1.211-1.832,0c-1.122,0.665-1.521,3.372-3.054,1.832
	c-0.535,1.257,1.584,2.741,1.832,1.221c1.133,0.378,0.475,1.292-0.281,1.894c0.692,0.488,1.383,0.975,2.075,1.462
	c1.489-1.467,3.705-2.51,4.923-0.914c0.92-0.986,2.247-3.176,3.663-1.832c1.015-1.835,2.743-2.955,3.664-4.884
	c0.49,0.322,0.99,0.636,1.832,0.61c-0.92,4.122-1.31,2.619-1.832,6.105c-0.711-0.099-1.087,0.135-1.222,0.61
	c-0.662-0.15-0.414-1.214-1.222-1.221c-1.789,0.517,0.365,1.966,0,3.052c-1.597-1.525-2.721,0.868-3.053,2.442
	c0.139,0.88,1.823,0.213,1.832,1.222c0.882-0.729,0.926-3.008,1.831-0.611c1.246-0.383,0.172-3.085,2.443-2.443
	c-0.732,0.802-0.237,0.961,0,1.832c0.903-0.317,1.539-0.903,2.442-1.221c0.505-1.726-0.86-1.582-0.61-3.053
	c3.384,3.277,2.955-2.668,6.104-3.053c0.502,1.582,1.444,4.132-1.221,3.664c-0.755,1.975,1.976,0.467,1.221,2.442
	c-3.059-2.069,0.275,2.411-3.052,0.61c0.401,0.819,1.306,1.137,2.441,1.221c-1.356,0.475-1.637,2.026-3.663,1.832
	c2.786,0.743-1.576,2.298,1.222,2.442c-0.322,0.613-3.266,0.833-2.511,1.869c2.437,1.716,4.872,3.433,7.309,5.154
	c1.072-1.024,2.163-2.254,3.75-2.749c-0.225,1.039,0.477,1.152,1.222,1.221c-0.986,0.921-1.066,2.746-2.301,3.418
	c14.219,10.064,28.471,20.322,43.021,31.374C806.075,188.427,632.144,21.706,419.998,21.706
	C206.409,21.706,31.555,190.704,22.114,402.006z M750.083,371.483c2.641,0.259,4.827-3.172,6.105-0.611
	c0.306,0.024,0.475-0.088,0.574-0.27c-2.758-1.388-5.512-2.783-8.273-4.167c0.034,0.418,0.313,0.721,0.983,0.774
	c-0.859,1.337-4.249,2.163-4.885,1.832c0,0.61,0,1.221,0,1.832c1.851,1.81,5.125-0.137,5.495-1.832
	C751.657,369.188,749.245,370.092,750.083,371.483z M736.039,386.136c-1.451-1.6-4.582-1.521-6.715-2.441
	c0.4-0.819,1.305-1.137,2.442-1.222c-2.294-0.466-3.641-4.016-4.884-0.61c0.367-1.812-2.559-1.548-1.223-3.664
	c-2.18,1.285-3.35,0.4-4.273,0.611c-1.222-0.675,0.98-3.516-2.442-3.053c2.638-2.337-1.521-0.958,0-3.663
	c-2.162,0.204-1.501,1.68-3.663,0.61c1.441-1.549-2.97-2.657-3.664-5.495c0.611,0,1.222,0,1.832,0
	c0.226-2.057-2.567-1.097-2.443-3.053c0.521-0.112,0.577,0.238,0.611,0.61c1.792-0.519-0.793-1.536,0-3.053
	c1.401,0.312,1.963,4.122,3.054,1.221c-0.315,3.956,3.876,4.423,5.494,7.938c0.493-0.525,1.673-0.362,1.832-1.221
	c2.026,0.416,0.685,4.201,2.442,4.884c1.687-0.194,1.057-1.889,0-2.442c0.396-1.036,1.404-0.382,1.221,0.61
	c0.88-0.138,0.213-1.822,1.223-1.832c-2.104-1.166-1.982-3.245-1.833-6.106c1.827,0.005,2.566,1.098,3.054,2.442
	c1.651-1.692-1.798-3.465-3.054-4.274c0.182-1.243,1.224-1.626,1.833-2.442c-0.52-1.791-1.537,0.794-3.055,0
	c-0.535-1.079-1.935-1.782-0.61-3.053c-0.49,0.323-0.99,0.637-1.831,0.61c1.5-1.879,0.721-2.441-1.222-3.663
	c0.601-0.47,0.818-1.083,0.759-1.714c-16.252-8.091-32.517-16.167-48.729-24.309c9.522,17.698,23.627,37.713,36.474,56.301
	c0.717-1.542,1.957,0.277,2.337-2.192c1.014,0.819,0.459,3.205,2.443,3.053c2.212-0.267,0.143-4.377,3.054-2.442
	c-0.381-1.655-2.552-1.52-2.443-3.664c0.751,0.683,1.254,0.532,1.222-0.61c1.212-0.311,1.397,3.369,2.442,1.221
	c-0.337,1.374,1.723,3.968,3.052,3.053c-0.324,3.111,4.755,2.002,4.885,7.327c0.815,0,1.628,0,2.443,0
	c-0.525-0.493-0.362-1.672-1.221-1.832c0.761-1.497,2.395,1.21,3.052,1.832c1.07,0.169,3.046-1.719,3.663,0
	c1.829-0.401-0.583-1.305,0-2.442c1.074,0.147,1.393,1.05,1.221,2.442C737.551,389.046,731.541,385.734,736.039,386.136z
	 M714.677,393.407c0.152,0.225,0.31,0.452,0.461,0.675c0.048-0.19,0.098-0.391,0.144-0.619
	C715.04,393.405,714.844,393.392,714.677,393.407z M709.477,385.833c0.494,0.715,0.981,1.425,1.472,2.135c0.019,0,0.039,0,0.058,0
	C711.113,386.639,710.235,386.295,709.477,385.833z M86.914,364.767c1.827,0.005,2.566,1.098,3.053,2.442
	c1.652-1.692-1.796-3.465-3.053-4.274c0.181-1.243,1.223-1.626,1.832-2.442c-0.52-1.791-1.537,0.794-3.054,0
	c-0.536-1.079-1.935-1.782-0.61-3.053c-0.491,0.323-0.991,0.637-1.832,0.61c1.208-1.513,0.922-2.175-0.241-3.011
	c-2.929,2.396-5.857,4.794-8.784,7.196c0.9,1.041,1.435,3.025,2.309,0.7c-0.315,3.956,3.876,4.423,5.495,7.938
	c0.493-0.525,1.673-0.362,1.832-1.221c2.026,0.416,0.684,4.201,2.442,4.884c1.686-0.194,1.057-1.889,0-2.442
	c0.396-1.036,1.404-0.382,1.221,0.61c0.88-0.138,0.213-1.822,1.222-1.832C86.643,369.707,86.764,367.628,86.914,364.767z
	 M92.409,351.945c-1.562-0.156-2.538-0.952-3.66-1.595c-0.485,0.396-0.97,0.793-1.455,1.189c1.196,1.051,2.248,2.246,2.672,4.069
	C91.435,355.042,89.597,351.168,92.409,351.945z M131.472,694.297c-2.417-2.543-4.793-5.123-7.144-7.729
	C126.679,689.174,129.055,691.756,131.472,694.297z M169.63,713.02c-0.387,4.563-1.101,9.705-1.78,15.069
	c2.601,2.132,5.235,4.224,7.891,6.291C175.999,726.372,174.573,718.864,169.63,713.02z M226.064,727.128
	c-4.414,7.765-3.667,25.7-1.975,39.535c1.196,0.679,2.384,1.368,3.586,2.035C229.273,753.583,228.743,734.878,226.064,727.128z
	 M223.894,727.128c6.401-4.726,1.393-16.176-2.171-20.62C222.109,713.719,222.213,721.213,223.894,727.128z M325.908,715.19
	c-4.653,13.457-4.379,36.444,1.085,48.837C329.256,748.829,327.89,729.583,325.908,715.19z M332.42,697.826
	c-4.867,12.277,4.13,26.08,5.426,39.069C337.364,722.546,339.98,705.099,332.42,697.826z M501.722,720.617
	c-1.261-13.023-4.003-33.491-13.023-42.326c2.916,22.046,2.573,47.35,6.512,68.372c2.371-11.166,1.587-25.707,2.171-35.813
	C498.292,713.964,498.867,723.046,501.722,720.617z M525.598,727.128c-3.112,10.845-10.099,21.508-4.342,32.559
	C522.685,749.531,529.438,738.939,525.598,727.128z M544.047,727.128c-1.432,5.814-2.645,18.737,2.171,21.706
	C546.214,740.879,546.69,732.444,544.047,727.128z M644.977,710.85c-0.239-0.846-0.909-1.262-2.17-1.086
	c0.643,8.053-1.338,24.472,1.085,27.132C644.714,728.675,645.357,720.273,644.977,710.85z M818.291,419.998
	c0-5.989-0.142-11.946-0.404-17.872c-17.483-9.292-35.126-18.386-52.863-27.359c-0.396,0.641-0.915,1.156-2.117,0.99
	c0.701,0.722,0.691,2.159,0.61,3.664c-2.796-0.963-1.13,2.535-3.054,2.442c0.152,0.663,1.214,0.414,1.222,1.221
	c0.751-0.267,1.253-0.781,1.222-1.832c1.161,0.262,1.532,1.315,3.052,1.221c-0.898,2.003-3.658,3.189-3.052,5.495
	c-1.444,1.309-3.066-0.469-3.665,2.442c-1.528-0.076-1.91-1.165-2.441,0.61c-0.716-0.098-0.516-1.113-0.611-1.831
	c-2.612,1.661-5.192,3.355-6.716,6.105c2.823-0.693,0.35,2.905,2.443,4.274c1.465-1.181,1.864-3.426,4.272-3.664
	c1.347,1.29-0.783,1.805-0.61,3.664c1.711-1.138,2.568-3.13,3.053-5.495c1.146,0.686,1.297,2.366,2.442,3.053
	c2.04-0.124,1.619-3.082,3.054-0.61c1.324,0.103,0.275-2.166,0.61-3.053c1.077,1.13,1.891-0.157,2.442-1.221
	c0.663,0.15,0.414,1.214,1.221,1.221c0.777-0.138,0.801-1.822,0-1.831c-0.181-1.634,2.37,1.623,1.831-1.222
	c0.545,0.271,1.093,0.537,1.221,1.222c0.844-1.753,2.783,0.021,3.054-3.054c1.727-0.504,1.582,0.861,3.054,0.611
	c-0.074,2.165-0.607,3.87-2.442,4.273c1.903,2.071-2.639,4.936-1.832,6.106c-2.82,0.676-1.053,2.167-4.885,1.832
	c1.485,3.323-2.041,1.95-0.61,4.884c-2.099-0.259-3.679-0.615-5.495,0.61c0.401,1.829,1.305-0.583,2.442,0
	c0.25,1.472-1.114,1.327-0.61,3.053c-7.251,0.854,0.587,5.439-3.664,6.717c2.166,0.828,0.967,1.229,1.832,3.053
	c0.715-0.099,0.515-1.113,0.611-1.832c1.138,4.06,2.736,0.694,5.494,0c-0.262,1.163-1.315,1.534-1.221,3.053
	c3.327,0.477,0.69-5.007,4.272-4.273c0.445,1.666-1.212,1.229-1.221,2.442c3.229-0.437,4.81-2.518,4.886-6.106
	c0.905,0.519,1.313,1.537,1.222,3.053c1.323,0.103,0.275-2.166,0.61-3.053c3.421,3.293,4.234-4.054,8.547-3.663
	c-0.682,0.751-0.53,1.254,0.61,1.221c0.184,1.609-0.845,2.005-2.442,1.832c0.092,1.129,2.068,0.375,2.442,1.221
	c-1.526,0.712-2.347,2.129-4.885,1.832c-0.301,1.93,3.03,0.227,2.442,2.442c-1.276,0.259-1.616-0.418-2.442-0.61
	c-0.284,1.303,0.874,1.163,1.832,1.221c-0.558,2.049-1.134,0.303-3.053,0.611c0.447,0.57,1.111,0.924,1.832,1.221
	c-1.624,1.631-0.869,5.644-4.273,5.496c0.517,0.907,1.965,0.883,3.052,1.221c0.846-0.985,1.731-1.934,2.442-3.054
	c1.664,1.508-0.505,4.346-1.221,5.496c-0.187,0.74,1.765,2.105,1.831,0.611c1.439,0.515-0.507,2.678-0.61,3.662
	c-1.095,0.079-1.287-0.748-2.442-0.61c-0.897,2.323,2.73,0.12,1.832,2.442c-1.921-0.7-1.483,0.959-2.442,1.221
	c0.268,0.752,0.782,1.255,1.832,1.222c-0.068,1.153-2.019,0.424-1.832,1.833c-0.812-0.614-2.272-0.579-2.441-1.833
	c-2.128,0.828,0.46,2.757,0,4.274c2.119-2.043,2.925-1.479,5.494-0.61c2.526-2.425,3.474-4.286,6.717-4.886
	c-0.766,1.651-0.466,3.425,0.61,1.222c1.924,2.549-2.518,3.695-1.831,5.495c-1.818,0.032-3.099-1.796-4.275-0.61
	c1.396,0.638,2.164,1.908,4.275,1.831c-0.556,2.216-1.802,0.371-3.664,0.611c0.147,1.074,1.051,1.392,2.443,1.221
	c1.462,0.478-2.947,1.483-3.055,0.61c-0.089,1.516-0.112,2.963,1.222,3.054c-0.423,1.524-1.629-1.134-3.053-0.611
	c-1.24-0.187,0.125,1.764,0.61,1.832c-2.151,1.777-3.37-3.963-6.104-1.832c1.93,2.988-2.653,2.92,0,4.274
	c-1.373,1.919-3.576-0.447-3.664-1.831c-1.245,0.339-1.196,1.836-2.443,0.61c-0.026,1.043,0.454,1.581,1.222,1.831
	c0.532,1.282-3.105-0.886-1.222,0.611c-0.909,2.011-1.723-1.039-2.441-1.222c-0.494,0.116-0.608,0.613-1.221,0.61
	c0.525,0.492,0.362,1.673,1.221,1.832c-0.516,0.864-2.796-1.957-3.053,1.221c-0.57-0.447-0.925-1.11-1.221-1.831
	c-0.947,0.683-1.271,1.984-3.054,1.831c0.457-1.153,1.822-0.424,0.611-1.831c-1.511,0.856-1.078,2.104-0.611,3.662
	c-0.492-0.423-1.672-0.949-1.832,0c-1.322,0.104-0.275-2.165-0.61-3.052c-1.449,1.51-2.501,1.098-3.053,2.441
	c-1.805-2.228-1.793,0.447-4.884,0c0,0.61,0,1.221,0,1.832c0.007,1.713,1.665-1.453,1.222,1.222
	c1.878,0.454,1.172-1.676,3.052-1.222c0.007,1.622-0.23,3.487,0.61,4.275c1.437-0.193,0.363-2.896,2.442-2.443
	c-0.17,1.392,0.148,2.295,1.221,2.443c2.454,0.087,1.616-1.566,1.222-3.054c1.069,0.558,2.121,1.135,1.832,3.054
	c2.105,0.068,1.559-2.514,3.663-2.443c-1.195,1.142-0.188,2.236,0,3.664c2.453,0.212,1.61-2.868,3.053-3.664
	c1.077,0.554,1.009,2.248,2.441,2.443c1.365-0.264,0.248-3.011,0.611-4.275c1.962,1.405,2.819-0.212,4.275,1.222
	c1.323,0.103,0.275-2.165,0.61-3.054c1.257,1.267,3.097-0.002,3.052-1.831c1.216,1.271,2.608,0.019,3.053-1.221
	c1.835,1.866,1.362,6.789,5.496,6.716c-0.987,0.845-0.759,2.904-3.054,2.443c-0.077,1.095,0.747,1.287,0.61,2.441
	c3.664-1.426,4.937-5.24,9.158-6.106c-0.399,1.636-1.748,2.323-2.441,3.665c0.902,1.253,2.361-2.077,4.274-1.833
	c0.03,1.12-3.13,2.067-1.223,3.054c-2.168,0.475-2.647,2.643-4.884,3.052c-0.11,1.333,0.501,1.943,1.832,1.832
	c0.576,1.13-3.494,0.374-1.221,1.221c-0.814,0.872-2.716,1.616-3.663,0.611c-1.069,2.161,0.406,1.501,0.61,3.663
	c-1.88,0.454-1.175-1.676-3.054-1.221c-0.8,0.413,0.676,2.029,0.61,2.441c-0.889,1.156-3.188,2.737-4.885,1.221
	c-0.184,1.61,0.847,2.006,2.442,1.833c-0.146,1.073-1.049,1.392-2.442,1.221c0.744,2.801,1.019,2.753,0,6.105
	c0.152,0.664,1.215,0.414,1.222,1.222c2.171-1.991,5.05-2.628,3.663-6.717c1.071,0.559,2.122,1.136,1.833,3.054
	c2.299,0.299,3.752-1.73,5.494-1.222c0-0.813,0-1.629,0-2.442c2.236,2.323,4.148-0.486,6.106-1.831
	c1.318,1.257-1.391,5.041,2.442,3.053c-0.115,1.716-1.063,2.601-3.053,2.442c1.287,2.117-0.806,1.124-1.832,1.831
	c0.099,0.716,1.113,0.515,1.832,0.61c-0.351,1.273-3.951,0.765-3.665-0.61c-0.662,0.15-0.413,1.215-1.221,1.222
	c0.074,1.758,2.605,1.059,2.441,3.053c-2.304,0.057-3.446-1.634-2.441,1.221c-1.948,0.362-1.889-1.146-3.053,0
	c0.851,0.778,0.266,2.991,1.832,3.053c0.21,1.191-5.416-1.875-4.273,1.832c-2.189-1.402-4.466-0.337-3.054,2.442
	c-1.243-0.182-1.627-1.224-2.442-1.832c-1.775,0.53-0.686,0.915-0.61,2.442c-3.357-1.865-4.312-4.284-3.053-4.273
	c-2.979-0.025-0.711,4.81-4.273,3.052c-0.286,1.914,1.535,1.723,2.442,2.442c-0.52,1.791-1.537-0.794-3.054,0
	c-0.21-1.418-0.396-2.86-2.442-2.442c-0.905,0.268,0.241,0.781,0,1.832c-1.621-0.26-2.061-2.313-2.442,0.61
	c-1.865-1.128,0.706-2.9,0-4.884c-2.762,0.478-3.22,2.708-5.494,4.884c0.068,1.495,2.018,0.13,1.831-0.61
	c1.61,1.454-1.098,3.753-1.221,5.496c-1.88,0.427-1.174,0.427-3.053,0c-0.158,1.99,0.725,2.938,2.442,3.053
	c-0.216,0.802-1.074,0.96-1.221,1.831c2.551-1.577,1.675,1.341,3.052,2.442c0.876-0.753,1.157-2.099,1.222-3.663
	c1.852-0.021,1.521,2.142,1.831,3.663c1.464,0.242-0.338-2.781,1.831-1.831c-1.085,4.848,5.151,2.905,6.107,1.221
	c0.904,0.267-0.242,0.781,0,1.832c2.129-0.72,1.549-4.148,4.272-4.274c-1.211,1.407,0.154,0.678,0.611,1.832
	c0.337,1.354-1.166,0.868-1.222,1.831c0.422,1.524,1.629-1.134,3.053-0.61c-0.007,1.213-1.665,0.776-1.221,2.442
	c2.556-2.125,4.864-4.498,6.106-7.938c0.819,0.402,1.136,1.305,1.221,2.442c4.096-0.28,9.466-2.437,13.433-6.105
	c1.893,1.348-1.524,2.499-1.831,3.663c0.253,1.355,3.347,0.586,3.052-0.61c1.079,2.522-4.916,3.21-4.884,6.716
	c-1.948,0.524-1.889-0.961-3.055-1.221c-0.542,0.271-1.091,0.535-1.221,1.221c1.411,0.828,2.724,1.756,4.886,1.832
	c-0.1,0.715-1.113,0.515-1.832,0.61c-0.594,0.017-0.474,0.747-0.61,1.221c-1.425,0-2.849,0-4.274,0
	c0.707,2.063-0.431,2.605,0.61,3.664c-2.001,1.763-2.673-2.999-4.884-3.054c-0.808,0.455,1.408,3.029,1.831,4.274
	c-1.21-0.839-5.481-3.87-9.158-4.274c-2.037,0.651-0.038,1.853-1.222,3.664c-1.462-0.37-2.785-0.877-4.884-0.61
	c0.27,0.544,0.536,1.092,1.222,1.221c-1.155,1.542-2.142-0.563-3.664,0.61c-0.014-1.438,1.053-1.797,0.61-3.662
	c-2.587,0.746-3.104,0.039-4.885-1.223c-0.996-0.274-0.996,3.328,0,3.054c-0.6,1.872-1.629-0.703-2.441-0.61
	c-0.856,0.216-0.054,1.074,0.61,1.221c-0.625,1.359-2.807-0.799-4.885,0c0.051-0.968-0.294-2.329,0.611-2.441
	c-0.343-0.88-0.954-1.49-1.833-1.833c-1.548,1.302-1.557,4.142-4.273,4.274c-0.443-1.867,1.053-1.795,0.61-3.664
	c-1.427,0.189-2.522,1.195-3.663,0c-1.476,1.714,1.532,4.14,1.831,6.106c0.57-0.447,0.926-1.11,1.222-1.832
	c2.481-0.243,1.879,2.599,3.663,3.053c1.153-0.067,0.423-2.019,1.832-1.832c2.049,0.19,2.436,2.043,3.053,3.664
	c1.896-0.802,1.742,0.165,4.273,0c0.712-0.915,1.764-1.493,1.831-3.053c1.314,0.518,2.16,1.504,1.833,3.663
	c1.932-1.121,5.218-0.888,4.885-4.274c1.393,2.044,7.177,1.058,8.548-1.831c0.49,0.323,0.99,0.637,1.832,0.61
	c-0.509,1.258-0.521,2.742,0.61,1.221c1.661,1.702-1.505,3.758-2.442,4.885c-0.903-0.317-1.539-0.902-2.443-1.221
	c-1.293,0.192-0.132,2.895,1.222,2.442c-0.98,1.869-5.707-0.009-4.885,3.663c-2.393-1.762-1.545-0.472-3.662,0.61
	c0.803-1.811,0.54-3.012-1.222-3.662c-0.713,1.021-4.986,3.946-2.442,4.273c-2.447-0.158-5.152-4.268-7.327,0.61
	c-0.292-1.921,0.869-2.387,1.222-3.663c-0.117-0.495-0.613-0.609-0.61-1.221c-1.575,2.895-1.964-1.316-4.885-0.611
	c-0.171,1.393,0.146,2.295,1.222,2.442c-0.249,2.062-2.368-1.624-1.833,1.221c-1.914-0.423-0.796-1.629-0.61-3.052
	c-2.055,3.267-4.543,2.12-6.105,6.105c-1.755-0.662-2.899-0.992-2.441,1.831c-1.126-3.325-3.105,1.246-4.275-2.441
	c-1.423,7.938-0.205,18.519-0.61,27.475c-2.646,0-5.291,0-7.937,0c-1.411-10.801-0.215-24.208-0.61-36.023
	c-2.086,1.171-3.663,2.852-6.717,3.054c1.136,1.275,1.581,2.294,1.831,3.052c-0.138,0.88-1.822,0.214-1.831,1.222
	c-0.829-0.189-0.507-1.528-0.61-2.442c-0.611,0-1.222,0-1.832,0c0.594,2.203,2.961,4.358,0.61,6.105
	c-0.828-0.188-0.507-1.529-0.61-2.441c-0.88,0.341-1.49,0.952-1.831,1.831c-1.982-1.059,1.585-1.6,0.61-3.664
	c-0.532-1.775-0.915-0.687-2.443-0.61c0.008,1.214,1.666,0.776,1.223,2.443c-1.566-1.622-0.981,1.066-1.833,1.831
	c-2.652,0.691-3.407,0.104-5.495,0.61c0.704-0.722,0.691-2.158,0.61-3.663c-2.363-0.33-2.514,1.556-4.272,1.832
	c1.479,1.553-0.611,2.978-1.222,4.273c-0.983-0.645,0.994-2.42-1.832-1.221c0.215-0.803,1.074-0.961,1.221-1.832
	c-1.665-0.055-1.229,1.018-2.442,0c-2.118,0.758-1.124,1.775-1.832,3.053c-1.726-0.505-1.581,0.86-3.052,0.61
	c1.027-1.415,2.283-2.6,2.441-4.884c-0.115-0.495-0.612-0.609-0.61-1.222c-1.453,0.02-2.912,3.128-4.273,1.222
	c-1.132,1.106-1.518,2.959-3.053,3.663c-0.52,0.112-0.576-0.238-0.611-0.61c0.112-0.52-0.238-0.577-0.61-0.611
	c0.917-0.914,1.827-1.836,2.443-3.052c-2.976,0.077-2.342,3.765-5.496,3.663c0.017-0.594,0.748-0.475,1.221-0.611
	c0.273-1.722-1.008-2.276-0.316-3.293c-1.694,1.76-3.514-0.077-5.788-0.37c0.665-1.369,2.997-1.074,3.662-2.442
	c-1.561,1.073-4.284-2.81-6.105-1.221c0.879-2.21-1.569-1.183-2.442-4.274c1.606,0.234,2.314,0.749,4.275,1.831
	c-0.06-2.384-2.469-2.416-3.665-3.663c1.106-2.491,4.148,3.403,4.275,0c2.29,2.535,4.326,1.687,6.104,4.886
	c0.976,0.033,1.56-4.304,1.832-1.223c1.735,0.107-0.738-3.993,1.832-3.053c-0.43,4.501,3.827,4.315,4.885,7.327
	c1.829-0.402-0.584-1.306,0-2.441c1.213,0.008,0.775,1.665,2.441,1.221c-1.816-1.224-1.854-2.41-1.221-4.885
	c1.268,2.599,4.631,3.103,4.885,6.716c2.192-1.646-1.652-2.369-1.222-4.273c1.263,1.181,3.397,1.488,4.886,2.442
	c1.364-0.264,0.246-3.01,0.61-4.274c0.879,0.342,1.49,0.952,1.831,1.832c1.349-0.075,0.259-2.591,0.61-3.664
	c1.072,0.557,1.117,2.141,1.832,3.053c0.848-1.373,1.261-2.587,2.441-0.61c0.777-0.138,0.801-1.822,0-1.831
	c0.553-1.654,2.249,0.514,2.443,1.221c1.408,0.187,0.679-1.764,1.832-1.832c1.901-0.285,2.182,1.535,1.221,2.442
	c2.604,0.161,1.115-3.77,4.884-2.442c-0.396-0.621-1.403-0.631-1.221-1.831c2.181,1.199,3.351-0.191,4.274-1.832
	c-0.116-0.693-0.613-0.339-0.61,0c-1.13-0.091-0.376-2.067-1.223-2.441c-2.59,2.449-3.186-2.227-6.104-0.61
	c2.313-3.442-3.222-3.875-1.221-7.327c-2.162-0.33-1.502,2.161-3.664,1.831c0.34-1.492,2.362-1.301,1.832-3.663
	c-0.716,0.099-0.515,1.113-0.611,1.832c-0.751-0.267-1.254-0.781-1.221-1.832c-0.98,0.851-0.649,3.013-1.832,3.663
	c-1.836-0.851,1.27-3.16-0.61-4.273c-1.079,1.158-0.568,3.909-1.832,4.885c-1.518-0.093-0.178-2.068,0-2.442
	c-1.044-0.027-1.581,0.453-1.831,1.221c-1.524-0.423,1.133-1.629,0.61-3.053c-0.712-1.245-1.596,1.775-2.441-0.61
	c-0.653,1.18-1.168,2.494-3.664,1.832c1.69,1.166,1.534,4.352-1.222,4.273c1.323-2.592,0.222-2.227-1.832-1.221
	c0.181-1.246,1.652-1.198,1.832-2.442c-1.519,0.067-1.891,1.144-3.053,0c-2.117,0.757-1.125,1.775-1.831,3.053
	c-1.018,0-2.035,0-3.053,0c2.224-0.83,2.573-3.532,3.053-6.105c-4.253,0.835-7.135,3.04-10.38,4.884
	c0.721-1.925,1.898-3.392,3.052-4.884c-2.864,0.391-2.888,3.623-6.104,3.663c1.181-1.779,0.571-3.028,1.221-4.274
	c-1.463,0.369-2.785,0.878-4.885,0.611c2.951-1.914-1.423-0.077-1.221-2.442c2.077,0.041,4.261,0.189,4.885-1.222
	c-0.092-1.129-2.067-0.374-2.441-1.221c-0.736,0.688-1.108,1.742-3.055,1.221c1.577-1.888-0.641-2.99-2.442-1.832
	c-0.731-1.302-0.744-3.325-2.441-3.663c0.915-1.311,1.492,0.438,3.052-0.61c0.331-2.162-2.162-1.502-1.831-3.663
	c1.598,0.846,3.347,1.538,3.663,3.663c2.628-1.352,2.747-0.082,4.886-0.611c-2.598-3.478-6.578-5.451-7.328-9.157
	c0.986-1.64,1.934-0.907,3.054,0c-0.915-0.919-1.093-2.571-2.443-3.054c0.785-1.135,3.128,1.309,3.664,2.443
	c1.051-0.19-0.793-2.121,1.833-1.833c-0.456,1.879,1.675,1.175,1.221,3.054c2.644-1.663,1.503,2.038,4.273,1.831
	c0.882-0.728,0.926-3.008,1.831-0.61c1.325,0.103,0.277-2.165,0.61-3.053c1.789,2.921,2.1,4.72,4.886,7.327
	c2.35-0.5,1.06-4.639,3.663-4.885c-0.876,3.113,1.868,2.609,2.441,4.273c0.721-2.002,2.841-0.122,4.275,0.611
	c2.397-1.59,1.603-4.528,0.61-6.716c-2.164-0.13-1.207,2.863-3.664,2.441c0.225-1.039-0.476-1.152-1.222-1.221
	c1.183-1.779,0.572-3.028,1.222-4.274c-2.269,0.607-1.597,1.304-4.273,0.61c0.067-1.153,2.019-0.424,1.831-1.831
	c-0.729-1.511-2.09-2.388-3.663-3.054c0.896-1.44,1.289-1.135,0.611-3.053c-1.656,0.38-1.521,2.552-3.663,2.442
	c0.214-0.802,1.074-0.96,1.221-1.831c-1.88-0.455-1.174,1.675-3.054,1.221c1.074-2.121,0.533-2.318,1.222-4.274
	c-1.73,0.637-2.545,0.637-4.274,0c0.559-1.07,1.136-2.122,3.053-1.831c-1.477-1.398-4.889-2.28-6.105-5.496
	c1.276-0.258,1.617,0.42,2.442,0.611c-0.397-1.84-2.397-2.08-3.053-3.663c3.169-0.513,6.378,4.195,9.159,6.105
	c1.244-1.092,0.171-2.254,2.441-1.222c-0.204-2.162-1.68-1.501-0.61-3.663c-0.026-0.947-4.335,1.318-3.663-1.831
	c0.813,0,1.627,0,2.442,0c-1.161-2.823-1.664-0.693-4.275-0.61c0.901-1.993-0.143-1.765-1.221-3.054
	c0.402-1.829,1.306,0.584,2.442,0c-1.634-1.862-1.586-1.634-2.442-4.274c2.385,1.606,2.578-0.862,1.832-3.052
	c1.726,1.733,2.802,4.118,4.885,5.494c1.012-0.617,0.663-2.593,1.222-3.663c0.765,1.28,1.496,8.301,4.272,3.663
	c1.35,0.076,0.261,2.591,0.61,3.663c0.829-0.188,0.507-1.529,0.611-2.441c1.257,2.921,2.407,2.154,3.664,4.885
	c1.323,0.103,0.275-2.166,0.611-3.054c2.266,0.989,2.861,3.651,4.883,4.885c1.672-2.376,5.579-4.794,5.496-5.495
	c2.544-1.921,3.464,2.748,6.716,0.61c0.063,1.896-1.921,1.742-1.221,4.274c4.455,0.182,4.776-3.771,5.495-7.327
	c-1.616-1.582-3.923-3.839-6.717-2.442c1.614-1.56-0.835-1.211-2.441-1.221c-0.261-2.523-3.091-3.15-4.886-2.442
	c0.173-1.091-0.577-1.252-0.61-0.61c-0.855-0.216-0.052-1.075,0.61-1.221c-0.882-1.993-1.363-1.537-3.663-1.222
	c0.271,0.544,0.536,1.092,1.221,1.222c0.188,1.407-1.764,0.679-1.831,1.831c-2.05-0.558-0.302-1.136-0.61-3.053
	c-1.07,2.427-2.794,0.426-3.663,3.053c-2.255,0.358,0.761-3.297-3.054-2.441c-1.892-1.347,4.381,0.358,3.664-1.832
	c-0.18-1.703-4.61,2.44-4.275-0.611c-0.824,0.601-1.22,1.63-1.831,2.443c-0.624,0.071-1.235-2.635-1.831-0.611
	c-0.833-1.17-0.068-2.34,0.61-4.274c-1.923-0.295-1.382,1.875-3.663,1.221c1.497-2.066,1.066-4.799-2.442-4.884
	c0.794-0.813,0.376-1.843-0.61-2.441c0.146-1.575,1.05,0.837,2.442,0c-0.269-1.419-2.696-1.635-1.221-3.054
	c1.22,1.833,3.591,2.515,4.884,4.274c2.027-0.199-1.608-2.664,0.61-3.054c-0.852-1.184-3.16-0.91-4.273-1.831
	c0.076-1.35,2.59-0.26,3.663-0.611c0-0.61,0-1.221,0-1.832c-2.976,2.447-4.367-1.499-5.495-4.272
	c0.802,0.215,0.961,1.074,1.832,1.221c0.249-1.471-1.115-1.327-0.61-3.053c1.889-0.104,2.745,2.147,1.831,3.053
	c1.303,0.285,1.163-0.872,1.222-1.831c1.553,2.453,2.113,2.219,3.052,4.883c1.384-2.45,2.22,1.194,2.442-1.221
	c1.057,1.59,1.175,4.118,3.054,4.885c1.51-0.856,1.077-2.104,0.61-3.664c2.977,0.738,2.05-2.427,4.273-2.441
	c0.188,2.052-0.814,5.293,1.832,4.885c1.176-0.869,2.554-3.373,4.273-1.832c0.584-3.433-0.861-4.838-3.053-5.494
	c0.18-1.246,1.652-1.198,1.832-2.443c-2.426,0.016-2.126,2.759-4.885,2.443c-1.227-1.246,0.27-1.198,0.61-2.443
	c-1.943,0.295-2.554,1.923-4.884,1.832c1.75-1.822-1.779-1.81-1.222-4.274c-2.032,1.162-1.984,0.866-4.274,1.222
	c0.548-1.285,0.95-2.715,1.832-3.664c-1.389,0.297-3.118,1.213-4.273,0c-0.445-1.666,1.213-1.229,1.221-2.442
	c-0.558-1.66-1.134,1.625-3.053,0.61c1.39-0.946,1.153-1.271,0.611-3.053c-1.866,0.441-2.227-0.624-3.663-0.61
	c0.616-1.012,2.592-0.664,3.663-1.221c-0.52-1.791-1.537,0.794-3.053,0c1.84-2.288-1.763-3.21-1.832-5.496
	c0.492,0.526,1.672,0.363,1.832,1.222c1.803-0.531-1.418-0.914-0.61-2.442c0.812-0.091,1.842,2.482,2.441,0.61
	c2.054,3.466,1.567,2.682,4.273,5.495c0.907-0.267-0.24-0.781,0-1.832c0.88,0.683,1.49,0.658,1.831-0.611
	c0.795,1.445,1.02,3.459,1.833,4.885c2.199,0.367,1.798-1.864,3.664-1.832c0.25,1.988,1.273,3.203,2.441,4.274
	c0.906-0.267-0.24-0.781,0-1.832c1.214,0.008,0.775,1.667,2.442,1.222c0.521-3.041,3.72,0.173,3.663-3.664
	c1.349,0.076,0.26,2.59,0.61,3.664c0.343,1.378,0.953-0.741,1.833,0.61c1.828-0.402-0.584-1.305,0-2.442
	c1.244,0.18,1.196,1.652,2.441,1.832c0.494-0.117,0.608-0.613,1.222-0.61c-2.104-3.059-3.445-2.084-4.885-6.106
	c-2.619,1.747-3.285-2.11-6.106-0.61c-0.261-1.686,2.276-0.573,2.442-1.832c-0.876-1.032-4.175,0.675-4.884,1.832
	c-1.177-1.13-0.482-1.118-2.442-0.61c0.215-0.802,1.075-0.961,1.222-1.832c-1.334-0.389-1.944,1.731-1.832-0.61
	c-1.492,0.34-1.301,2.362-3.665,1.832c2.658-2.153-1.655-1.565,0-4.274c-2.488-0.454-2.102,1.969-4.883,1.221
	c1.004-2.854-0.139-1.164-2.442-1.221c-0.547-1.971,1.99-0.858,2.442-1.832c-0.396-0.622-1.403-0.632-1.222-1.832
	c-1.367,1.377-3.06-0.039-4.274-0.61c-0.101-1.729,3.764,0.508,3.664-1.221c-0.752-1.855-2.101,0.661-3.664,0
	c-0.949-2.171,2.074-0.369,1.833-1.832c-0.727-1.31-2.646-1.425-3.665-2.442c1.193-1.934,2.855,0.452,1.222-3.664
	c2.278,1.501,2.657,4.23,4.274,1.832c-0.563,4.479,3.569,3.005,4.273,4.884c1.464,0.242-0.339-2.781,1.831-1.832
	c-0.871,2.688-0.241,3.832,1.833,4.885c1.528,0.104,1.91-0.938,2.442-1.831c1.193,2.063,1.679,4.833,3.663,6.105
	c1.789-0.517-0.364-1.966,0-3.053c1.243,0.181,1.626,1.223,2.441,1.832c0.651-1.084,0.047-2.787,2.442-1.221
	c0.585-1.137-1.828-2.041,0-2.442c-0.915-1.324-3.055-1.422-3.053-3.664c-0.542,0.474-1.379,0.657-2.441,0.611
	c1.583-2.467-1.615-2.39,0.61-3.664c-0.165-1.438-2.704-0.374-2.441,0.611c-1.18-0.761-1.041-1.296-0.776-2.347
	c-0.258-0.22-0.517-0.443-0.773-0.664c-0.743,0.354-0.667,1.529-2.114,1.178c-0.382-1.433,0.786-1.315,1.126-2.024
	c-0.229-0.196-0.458-0.393-0.688-0.589c-0.272,0.133-0.612,0.272-1.05,0.172c0.26-0.317,0.334-0.586,0.283-0.829
	c-44.535-38.177-93.746-80.683-148.523-109.621c14.311,0.084,32.188,6.869,47.223,10.349c-13.688-23.358-35.18-48.496-53.383-71.149
	c-32.771,31.148-64.149,64.05-96.5,95.728c9.157,15.627,20.957,27.924,31.824,41.396c-18.585-8.922-38.396-27.507-57.488-40.102
	c15.126,24.494,35.189,53.969,53.382,78.911c-32.495-28.909-65.421-68.486-98.553-100.903
	c12.667,28.022,24.398,57.223,37.984,84.086c-22.949-25.845-45.609-63.265-68.782-93.141c7.848,22.884,15.718,45.738,24.639,67.269
	c-30.789-45.29-60.918-102.617-92.393-151.354c19.414,13.917,42.024,35.01,61.596,53.039
	c-13.262-20.922-33.973-44.102-52.356-67.269c-2.459-3.099-15.07-23.157-17.452-23.285c-2.449-0.132-14.019,17.434-18.479,23.285
	c-41.041,53.832-84.548,116.193-123.192,168.171c10.201-25.525,27.028-53.907,40.038-80.205
	c-21.174,16.208-42.811,33.339-64.592,50.894c0.105,3.833-6.48,5.535-7.387,10.39c0.271,0.544,0.536,1.092,1.221,1.222
	c0.713-0.917,1.764-1.494,1.832-3.053c2.499,2.053,2.434-2.539,5.495-1.832c-0.708-2.684,1.003-4.59,3.053-6.106
	c-0.602,3.756,1.143,7.79-2.442,6.716c-0.002,1.631,1.93,1.327,1.832,3.053c2.522-1.548,3.39-4.75,6.106-6.105
	c1.431,5.161-3.266,8.749-7.938,9.769c-0.099-0.709,0.135-1.087,0.611-1.222c-0.558-1.66-1.135,1.627-3.053,0.611
	c0.323,0.491,0.637,0.991,0.61,1.831c-0.709-0.099-1.086,0.135-1.221,0.611c-0.57-0.449-0.925-1.111-1.221-1.832
	c-1.776,0.53-0.687,0.914-0.61,2.442c-0.751-0.267-1.254-0.782-1.221-1.832c-1.257,1.211-0.575,1.211-1.832,0
	c-1.122,0.665-1.521,3.372-3.053,1.832c-0.536,1.257,1.583,2.741,1.832,1.221c1.655,0.553-0.514,2.248-1.221,2.442
	c2.04,0.578,1.352,0.305,1.832,2.442c1.081-2.006,4.482-4.57,6.106-2.442c0.92-0.986,2.247-3.176,3.663-1.832
	c1.014-1.835,2.743-2.955,3.664-4.884c0.49,0.322,0.991,0.636,1.832,0.61c-0.92,4.122-1.309,2.619-1.832,6.105
	c-0.71-0.099-1.086,0.135-1.221,0.61c-0.663-0.15-0.415-1.214-1.221-1.221c-1.79,0.517,0.365,1.966,0,3.052
	c-1.598-1.525-2.721,0.868-3.053,2.442c0.139,0.88,1.823,0.213,1.832,1.222c0.882-0.729,0.926-3.008,1.832-0.611
	c1.245-0.383,0.171-3.085,2.442-2.443c-0.733,0.802-0.237,0.961,0,1.832c0.903-0.317,1.539-0.903,2.442-1.221
	c0.504-1.726-0.86-1.582-0.611-3.053c3.385,3.277,2.956-2.668,6.106-3.053c0.501,1.582,1.444,4.132-1.221,3.664
	c-0.755,1.975,1.976,0.467,1.221,2.442c-3.059-2.069,0.274,2.411-3.053,0.61c0.401,0.819,1.305,1.137,2.442,1.221
	c-1.357,0.475-1.637,2.026-3.664,1.832c2.786,0.743-1.577,2.298,1.221,2.442c-0.375,0.713-4.305,0.891-1.832,2.442
	c-1.534,0.255-2.311,1.948-3.053-0.61c-1.348,0.076-0.259,2.59-0.61,3.663c-0.912-0.969-3.481-0.893-3.053,1.221
	c-1.324,0.103-0.276-2.166-0.61-3.053c-1.723,1.701-3.84,3.569-5.495,0.61c-1.55,0.482,1.717,2.135,0,3.053
	c-0.751-0.266-1.254-0.781-1.221-1.832c-1.33,0.241-4.398,4.071-1.832,4.274c-0.859,1.337-4.249,2.163-4.885,1.832
	c0,0.61,0,1.221,0,1.832c1.85,1.81,5.125-0.137,5.495-1.832c1.574,0.147-0.838,1.051,0,2.442c2.64,0.259,4.826-3.172,6.105-0.611
	c1.324,0.103,0.277-2.166,0.611-3.053c1.667-0.445,1.229,1.213,2.442,1.221c1.829-0.402-0.584-1.305,0-2.442
	c1.039,0.225,1.152-0.477,1.221-1.221c0.907,0.961,2.728,0.68,2.442-1.221c0.828,0.189,0.507,1.529,0.61,2.442
	c1.724,0.095,1.531-1.726,2.442-2.442c0.802,0.216,0.961,1.075,1.832,1.221c0.455,1.879-1.676,1.173-1.221,3.053
	c0.083,1.395,3.675-1.911,1.832-2.442c2.984,0.586,4.177-3.291,7.327-4.274c-0.225,1.039,0.477,1.152,1.222,1.221
	c-1.158,1.082-1.053,3.425-3.054,3.664c-0.242,1.463,2.781-0.339,1.832,1.832c-1.276,0.259-1.617-0.418-2.442-0.61
	c2.041,2.01-0.457,1.231,0.61,3.664c-3.425-1.255-1.159,0.274-1.832,1.221c-1.723,0.095-1.53-1.727-2.442-2.442
	c-0.536,0.552-1.75,3.447-0.611,3.664c-0.747,1.848-2.331-0.432-3.053-0.611c-0.92,0.912-0.927,2.737-3.053,2.442
	c0.703,0.722,0.691,2.159,0.61,3.664c-2.795-0.963-1.129,2.535-3.053,2.442c0.151,0.663,1.213,0.414,1.221,1.221
	c0.75-0.267,1.253-0.781,1.221-1.832c1.163,0.262,1.534,1.315,3.053,1.221c-0.899,2.003-3.658,3.189-3.053,5.495
	c-1.444,1.309-3.065-0.469-3.664,2.442c-1.528-0.076-1.911-1.165-2.442,0.61c-0.716-0.098-0.515-1.113-0.611-1.831
	c-2.612,1.661-5.192,3.355-6.716,6.105c2.823-0.693,0.35,2.905,2.442,4.274c1.464-1.181,1.865-3.426,4.273-3.664
	c1.346,1.29-0.783,1.805-0.61,3.664c1.71-1.138,2.568-3.13,3.053-5.495c1.146,0.686,1.297,2.366,2.442,3.053
	c2.039-0.124,1.618-3.082,3.053-0.61c1.325,0.103,0.277-2.166,0.611-3.053c1.077,1.13,1.891-0.157,2.442-1.221
	c0.663,0.15,0.414,1.214,1.221,1.221c0.778-0.138,0.801-1.822,0-1.831c-0.181-1.634,2.369,1.623,1.832-1.222
	c0.543,0.271,1.092,0.537,1.221,1.222c0.843-1.753,2.783,0.021,3.053-3.054c1.726-0.504,1.582,0.861,3.053,0.611
	c-0.074,2.165-0.607,3.87-2.442,4.273c1.904,2.071-2.639,4.936-1.832,6.106c-2.821,0.676-1.052,2.167-4.885,1.832
	c1.486,3.323-2.041,1.95-0.61,4.884c-2.099-0.259-3.679-0.615-5.495,0.61c0.401,1.829,1.305-0.583,2.442,0
	c0.25,1.472-1.115,1.327-0.611,3.053c-7.25,0.854,0.588,5.439-3.663,6.717c2.165,0.828,0.967,1.229,1.832,3.053
	c0.716-0.099,0.515-1.113,0.611-1.832c1.138,4.06,2.736,0.694,5.495,0c-0.262,1.163-1.315,1.534-1.221,3.053
	c3.327,0.477,0.691-5.007,4.273-4.273c0.445,1.666-1.213,1.229-1.221,2.442c3.227-0.437,4.809-2.518,4.885-6.106
	c0.906,0.519,1.313,1.537,1.221,3.053c1.324,0.103,0.277-2.166,0.611-3.053c3.421,3.293,4.235-4.054,8.547-3.663
	c-0.682,0.751-0.532,1.254,0.61,1.221c0.184,1.609-0.845,2.005-2.442,1.832c0.092,1.129,2.068,0.375,2.442,1.221
	c-1.526,0.712-2.348,2.129-4.884,1.832c-0.301,1.93,3.03,0.227,2.442,2.442c-1.276,0.259-1.617-0.418-2.442-0.61
	c-0.286,1.303,0.873,1.163,1.832,1.221c-0.558,2.049-1.135,0.303-3.053,0.611c0.448,0.57,1.111,0.924,1.832,1.221
	c-1.625,1.631-0.87,5.644-4.274,5.496c0.517,0.907,1.965,0.883,3.052,1.221c0.846-0.985,1.731-1.934,2.442-3.054
	c1.663,1.508-0.505,4.346-1.221,5.496c-0.188,0.74,1.764,2.105,1.831,0.611c1.439,0.515-0.507,2.678-0.61,3.662
	c-1.095,0.079-1.288-0.748-2.442-0.61c-0.897,2.323,2.729,0.12,1.832,2.442c-1.92-0.7-1.483,0.959-2.442,1.221
	c0.267,0.752,0.782,1.255,1.832,1.222c-0.068,1.153-2.019,0.424-1.832,1.833c-0.812-0.614-2.272-0.579-2.442-1.833
	c-2.128,0.828,0.46,2.757,0,4.274c2.12-2.043,2.926-1.479,5.495-0.61c2.526-2.425,3.474-4.286,6.717-4.886
	c-0.767,1.651-0.467,3.425,0.61,1.222c1.924,2.549-2.519,3.695-1.832,5.495c-1.817,0.032-3.098-1.796-4.274-0.61
	c1.397,0.638,2.164,1.908,4.274,1.831c-0.555,2.216-1.802,0.371-3.663,0.611c0.146,1.074,1.05,1.392,2.442,1.221
	c1.462,0.478-2.947,1.483-3.054,0.61c-0.089,1.516-0.113,2.963,1.222,3.054c-0.422,1.524-1.628-1.134-3.053-0.611
	c-1.24-0.187,0.125,1.764,0.61,1.832c-2.152,1.777-3.371-3.963-6.105-1.832c1.93,2.988-2.653,2.92,0,4.274
	c-1.373,1.919-3.577-0.447-3.664-1.831c-1.245,0.339-1.197,1.836-2.442,0.61c-0.027,1.043,0.454,1.581,1.221,1.831
	c0.532,1.282-3.106-0.886-1.221,0.611c-0.909,2.011-1.723-1.039-2.442-1.222c-0.494,0.116-0.608,0.613-1.221,0.61
	c0.525,0.492,0.363,1.673,1.221,1.832c-0.515,0.864-2.795-1.957-3.052,1.221c-0.57-0.447-0.925-1.11-1.222-1.831
	c-0.946,0.683-1.271,1.984-3.053,1.831c0.458-1.153,1.823-0.424,0.611-1.831c-1.51,0.856-1.078,2.104-0.611,3.662
	c-0.493-0.423-1.672-0.949-1.832,0c-1.324,0.104-0.277-2.165-0.611-3.052c-1.449,1.51-2.502,1.098-3.053,2.441
	c-1.805-2.228-1.793,0.447-4.884,0c0,0.61,0,1.221,0,1.832c0.007,1.713,1.666-1.453,1.221,1.222
	c1.879,0.454,1.173-1.676,3.053-1.222c0.006,1.622-0.23,3.487,0.61,4.275c1.436-0.193,0.362-2.896,2.442-2.443
	c-0.17,1.392,0.147,2.295,1.221,2.443c2.454,0.087,1.615-1.566,1.221-3.054c1.07,0.558,2.121,1.135,1.832,3.054
	c2.105,0.068,1.559-2.514,3.664-2.443c-1.195,1.142-0.188,2.236,0,3.664c2.452,0.212,1.61-2.868,3.053-3.664
	c1.076,0.554,1.009,2.248,2.442,2.443c1.365-0.264,0.248-3.011,0.611-4.275c1.961,1.405,2.819-0.212,4.274,1.222
	c1.324,0.103,0.277-2.165,0.611-3.054c1.256,1.267,3.096-0.002,3.052-1.831c1.215,1.271,2.608,0.019,3.053-1.221
	c1.834,1.866,1.363,6.789,5.495,6.716c-0.987,0.845-0.759,2.904-3.053,2.443c-0.077,1.095,0.748,1.287,0.61,2.441
	c3.664-1.426,4.936-5.24,9.159-6.106c-0.4,1.636-1.749,2.323-2.442,3.665c0.902,1.253,2.361-2.077,4.274-1.833
	c0.031,1.12-3.129,2.067-1.222,3.054c-2.169,0.475-2.647,2.643-4.884,3.052c-0.111,1.333,0.5,1.943,1.832,1.832
	c0.576,1.13-3.495,0.374-1.222,1.221c-0.814,0.872-2.714,1.616-3.663,0.611c-1.069,2.161,0.406,1.501,0.61,3.663
	c-1.879,0.454-1.173-1.676-3.053-1.221c-0.801,0.413,0.675,2.029,0.61,2.441c-0.89,1.156-3.189,2.737-4.884,1.221
	c-0.184,1.61,0.845,2.006,2.442,1.833c-0.146,1.073-1.05,1.392-2.442,1.221c0.744,2.801,1.018,2.753,0,6.105
	c0.151,0.664,1.214,0.414,1.221,1.222c2.171-1.991,5.049-2.628,3.663-6.717c1.07,0.559,2.122,1.136,1.832,3.054
	c2.299,0.299,3.753-1.73,5.495-1.222c0-0.813,0-1.629,0-2.442c2.236,2.323,4.148-0.486,6.106-1.831
	c1.318,1.257-1.39,5.041,2.442,3.053c-0.115,1.716-1.063,2.601-3.053,2.442c1.287,2.117-0.804,1.124-1.832,1.831
	c0.099,0.716,1.113,0.515,1.832,0.61c-0.35,1.273-3.95,0.765-3.664-0.61c-0.663,0.15-0.414,1.215-1.221,1.222
	c0.073,1.758,2.604,1.059,2.442,3.053c-2.304,0.057-3.447-1.634-2.442,1.221c-1.948,0.362-1.888-1.146-3.053,0
	c0.851,0.778,0.266,2.991,1.832,3.053c0.21,1.191-5.417-1.875-4.274,1.832c-2.189-1.402-4.465-0.337-3.053,2.442
	c-1.243-0.182-1.627-1.224-2.442-1.832c-1.776,0.53-0.686,0.915-0.61,2.442c-3.359-1.865-4.312-4.284-3.053-4.273
	c-2.979-0.025-0.711,4.81-4.274,3.052c-0.286,1.914,1.535,1.723,2.442,2.442c-0.52,1.791-1.537-0.794-3.053,0
	c-0.21-1.418-0.395-2.86-2.442-2.442c-0.906,0.268,0.241,0.781,0,1.832c-1.621-0.26-2.061-2.313-2.442,0.61
	c-1.865-1.128,0.705-2.9,0-4.884c-2.763,0.478-3.22,2.708-5.496,4.884c0.068,1.495,2.019,0.13,1.832-0.61
	c1.61,1.454-1.097,3.753-1.221,5.496c-1.879,0.427-1.173,0.427-3.053,0c-0.159,1.99,0.725,2.938,2.442,3.053
	c-0.216,0.802-1.074,0.96-1.221,1.831c2.552-1.577,1.675,1.341,3.053,2.442c0.875-0.753,1.156-2.099,1.221-3.663
	c1.852-0.021,1.521,2.142,1.832,3.663c1.463,0.242-0.338-2.781,1.832-1.831c-1.086,4.848,5.15,2.905,6.106,1.221
	c0.905,0.267-0.242,0.781,0,1.832c2.129-0.72,1.55-4.148,4.273-4.274c-1.212,1.407,0.153,0.678,0.611,1.832
	c0.336,1.354-1.166,0.868-1.222,1.831c0.422,1.524,1.629-1.134,3.053-0.61c-0.007,1.213-1.666,0.776-1.221,2.442
	c2.556-2.125,4.864-4.498,6.105-7.938c0.82,0.402,1.137,1.305,1.222,2.442c4.095-0.28,9.465-2.437,13.432-6.105
	c1.894,1.348-1.523,2.499-1.832,3.663c0.253,1.355,3.348,0.586,3.053-0.61c1.079,2.522-4.917,3.21-4.884,6.716
	c-1.948,0.524-1.889-0.961-3.054-1.221c-0.543,0.271-1.091,0.535-1.221,1.221c1.41,0.828,2.723,1.756,4.885,1.832
	c-0.099,0.715-1.113,0.515-1.832,0.61c-0.593,0.017-0.474,0.747-0.61,1.221c-1.424,0-2.849,0-4.274,0
	c0.707,2.063-0.431,2.605,0.61,3.664c-2.001,1.763-2.673-2.999-4.884-3.054c-0.807,0.455,1.408,3.029,1.831,4.274
	c-1.21-0.839-5.481-3.87-9.158-4.274c-2.038,0.651-0.039,1.853-1.222,3.664c-1.462-0.37-2.785-0.877-4.884-0.61
	c0.271,0.544,0.536,1.092,1.222,1.221c-1.155,1.542-2.141-0.563-3.664,0.61c-0.014-1.438,1.052-1.797,0.61-3.662
	c-2.586,0.746-3.103,0.039-4.884-1.223c-0.997-0.274-0.997,3.328,0,3.054c-0.6,1.872-1.629-0.703-2.442-0.61
	c-0.855,0.216-0.053,1.074,0.611,1.221c-0.625,1.359-2.807-0.799-4.885,0c0.051-0.968-0.294-2.329,0.611-2.441
	c-0.342-0.88-0.953-1.49-1.832-1.833c-1.548,1.302-1.557,4.142-4.274,4.274c-0.443-1.867,1.053-1.795,0.611-3.664
	c-1.427,0.189-2.523,1.195-3.664,0c-1.475,1.714,1.533,4.14,1.832,6.106c0.57-0.447,0.925-1.11,1.221-1.832
	c2.482-0.243,1.879,2.599,3.664,3.053c1.153-0.067,0.423-2.019,1.832-1.832c2.049,0.19,2.436,2.043,3.053,3.664
	c1.895-0.802,1.742,0.165,4.274,0c0.712-0.915,1.763-1.493,1.831-3.053c1.314,0.518,2.16,1.504,1.832,3.663
	c1.932-1.121,5.218-0.888,4.885-4.274c1.393,2.044,7.177,1.058,8.547-1.831c0.492,0.323,0.992,0.637,1.832,0.61
	c-0.508,1.258-0.52,2.742,0.611,1.221c1.661,1.702-1.505,3.758-2.443,4.885c-0.903-0.317-1.539-0.902-2.442-1.221
	c-1.294,0.192-0.132,2.895,1.222,2.442c-0.98,1.869-5.707-0.009-4.885,3.663c-2.394-1.762-1.545-0.472-3.663,0.61
	c0.803-1.811,0.54-3.012-1.222-3.662c-0.713,1.021-4.986,3.946-2.442,4.273c-2.447-0.158-5.151-4.268-7.327,0.61
	c-0.292-1.921,0.87-2.387,1.221-3.663c-0.116-0.495-0.612-0.609-0.611-1.221c-1.575,2.895-1.964-1.316-4.884-0.611
	c-0.171,1.393,0.146,2.295,1.221,2.442c-0.249,2.062-2.368-1.624-1.832,1.221c-1.914-0.423-0.796-1.629-0.61-3.052
	c-2.055,3.267-4.543,2.12-6.105,6.105c-1.755-0.662-2.9-0.992-2.442,1.831c-1.125-3.325-3.105,1.246-4.274-2.441
	c-1.422,7.938-0.205,18.519-0.61,27.475c-2.646,0-5.292,0-7.937,0c-1.411-10.801-0.215-24.208-0.611-36.023
	c-2.085,1.171-3.662,2.852-6.716,3.054c1.135,1.275,1.582,2.294,1.832,3.052c-0.138,0.88-1.822,0.214-1.832,1.222
	c-0.829-0.189-0.506-1.528-0.611-2.442c-0.61,0-1.221,0-1.831,0c0.594,2.203,2.961,4.358,0.61,6.105
	c-0.829-0.188-0.507-1.529-0.61-2.441c-0.88,0.341-1.49,0.952-1.832,1.831c-1.981-1.059,1.586-1.6,0.61-3.664
	c-0.531-1.775-0.914-0.687-2.442-0.61c0.008,1.214,1.666,0.776,1.222,2.443c-1.566-1.622-0.981,1.066-1.832,1.831
	c-2.653,0.691-3.407,0.104-5.495,0.61c0.703-0.722,0.691-2.158,0.61-3.663c-2.364-0.33-2.514,1.556-4.274,1.832
	c1.48,1.553-0.61,2.978-1.221,4.273c-0.983-0.645,0.994-2.42-1.832-1.221c0.216-0.803,1.075-0.961,1.221-1.832
	c-1.666-0.055-1.228,1.018-2.442,0c-2.117,0.758-1.124,1.775-1.831,3.053c-1.726-0.505-1.582,0.86-3.053,0.61
	c1.027-1.415,2.284-2.6,2.442-4.884c-0.116-0.495-0.613-0.609-0.611-1.222c-1.453,0.02-2.912,3.128-4.273,1.222
	c-1.131,1.106-1.518,2.959-3.053,3.663c-0.519,0.112-0.576-0.238-0.61-0.61c0.112-0.52-0.238-0.577-0.61-0.611
	c0.917-0.914,1.827-1.836,2.442-3.052c-2.975,0.077-2.341,3.765-5.495,3.663c0.016-0.594,0.747-0.475,1.221-0.611
	c0.274-1.723-1.009-2.277-0.315-3.295c-1.695,1.763-3.515-0.075-5.791-0.368c0.666-1.369,2.998-1.074,3.663-2.442
	c-1.561,1.073-4.285-2.81-6.105-1.221c0.879-2.21-1.57-1.183-2.442-4.274c1.606,0.234,2.314,0.749,4.274,1.831
	c-0.058-2.384-2.468-2.416-3.664-3.663c1.105-2.491,4.147,3.403,4.274,0c2.291,2.535,4.326,1.687,6.105,4.886
	c0.976,0.033,1.56-4.304,1.832-1.223c1.734,0.107-0.738-3.993,1.832-3.053c-0.43,4.501,3.826,4.315,4.885,7.327
	c1.829-0.402-0.584-1.306,0-2.441c1.213,0.008,0.776,1.665,2.442,1.221c-1.818-1.224-1.856-2.41-1.222-4.885
	c1.268,2.599,4.632,3.103,4.885,6.716c2.193-1.646-1.652-2.369-1.222-4.273c1.263,1.181,3.397,1.488,4.885,2.442
	c1.366-0.264,0.248-3.01,0.611-4.274c0.879,0.342,1.489,0.952,1.831,1.832c1.349-0.075,0.259-2.591,0.611-3.664
	c1.072,0.557,1.117,2.141,1.832,3.053c0.847-1.373,1.26-2.587,2.442-0.61c0.778-0.138,0.801-1.822,0-1.831
	c0.553-1.654,2.248,0.514,2.442,1.221c1.408,0.187,0.679-1.764,1.832-1.832c1.902-0.285,2.183,1.535,1.222,2.442
	c2.603,0.161,1.114-3.77,4.884-2.442c-0.396-0.621-1.404-0.631-1.221-1.831c2.181,1.199,3.351-0.191,4.274-1.832
	c-0.116-0.693-0.613-0.339-0.61,0c-1.13-0.091-0.375-2.067-1.222-2.441c-2.591,2.449-3.187-2.227-6.105-0.61
	c2.312-3.442-3.222-3.875-1.222-7.327c-2.162-0.33-1.501,2.161-3.663,1.831c0.34-1.492,2.362-1.301,1.831-3.663
	c-0.715,0.099-0.514,1.113-0.61,1.832c-0.751-0.267-1.254-0.781-1.221-1.832c-0.981,0.851-0.65,3.013-1.832,3.663
	c-1.837-0.851,1.269-3.16-0.61-4.273c-1.08,1.158-0.568,3.909-1.832,4.885c-1.518-0.093-0.179-2.068,0-2.442
	c-1.044-0.027-1.582,0.453-1.832,1.221c-1.524-0.423,1.133-1.629,0.61-3.053c-0.712-1.245-1.595,1.775-2.442-0.61
	c-0.652,1.18-1.167,2.494-3.663,1.832c1.69,1.166,1.535,4.352-1.222,4.273c1.323-2.592,0.222-2.227-1.831-1.221
	c0.18-1.246,1.652-1.198,1.831-2.442c-1.519,0.067-1.89,1.144-3.053,0c-2.117,0.757-1.125,1.775-1.831,3.053
	c-1.018,0-2.036,0-3.053,0c2.224-0.83,2.573-3.532,3.053-6.105c-4.253,0.835-7.136,3.04-10.38,4.884
	c0.72-1.925,1.899-3.392,3.053-4.884c-2.865,0.391-2.889,3.623-6.105,3.663c1.181-1.779,0.571-3.028,1.221-4.274
	c-1.462,0.369-2.786,0.878-4.885,0.611c2.95-1.914-1.424-0.077-1.221-2.442c2.077,0.041,4.261,0.189,4.885-1.222
	c-0.092-1.129-2.067-0.374-2.442-1.221c-0.735,0.688-1.107,1.742-3.053,1.221c1.576-1.888-0.641-2.99-2.442-1.832
	c-0.732-1.302-0.745-3.325-2.442-3.663c0.916-1.311,1.493,0.438,3.053-0.61c0.33-2.162-2.162-1.502-1.832-3.663
	c1.597,0.846,3.347,1.538,3.664,3.663c2.628-1.352,2.746-0.082,4.885-0.611c-2.597-3.478-6.578-5.451-7.327-9.157
	c0.985-1.64,1.933-0.907,3.053,0c-0.914-0.919-1.092-2.571-2.442-3.054c0.784-1.135,3.127,1.309,3.664,2.443
	c1.051-0.19-0.793-2.121,1.832-1.833c-0.455,1.879,1.676,1.175,1.221,3.054c2.644-1.663,1.503,2.038,4.274,1.831
	c0.882-0.728,0.926-3.008,1.831-0.61c1.324,0.103,0.277-2.165,0.611-3.053c1.788,2.921,2.099,4.72,4.885,7.327
	c2.35-0.5,1.06-4.639,3.663-4.885c-0.875,3.113,1.869,2.609,2.442,4.273c0.721-2.002,2.84-0.122,4.274,0.611
	c2.397-1.59,1.603-4.528,0.61-6.716c-2.164-0.13-1.207,2.863-3.664,2.441c0.225-1.039-0.476-1.152-1.221-1.221
	c1.182-1.779,0.571-3.028,1.221-4.274c-2.268,0.607-1.596,1.304-4.273,0.61c0.068-1.153,2.019-0.424,1.832-1.831
	c-0.729-1.511-2.091-2.388-3.664-3.054c0.896-1.44,1.289-1.135,0.61-3.053c-1.655,0.38-1.52,2.552-3.663,2.442
	c0.215-0.802,1.075-0.96,1.221-1.831c-1.879-0.455-1.174,1.675-3.053,1.221c1.073-2.121,0.533-2.318,1.221-4.274
	c-1.73,0.637-2.544,0.637-4.274,0c0.558-1.07,1.135-2.122,3.053-1.831c-1.478-1.398-4.89-2.28-6.105-5.496
	c1.276-0.258,1.617,0.42,2.442,0.611c-0.398-1.84-2.398-2.08-3.053-3.663c3.169-0.513,6.379,4.195,9.159,6.105
	c1.245-1.092,0.171-2.254,2.442-1.222c-0.205-2.162-1.68-1.501-0.61-3.663c-0.026-0.947-4.335,1.318-3.664-1.831
	c0.814,0,1.628,0,2.442,0c-1.162-2.823-1.664-0.693-4.274-0.61c0.899-1.993-0.144-1.765-1.221-3.054
	c0.402-1.829,1.305,0.584,2.442,0c-1.634-1.862-1.586-1.634-2.442-4.274c2.385,1.606,2.578-0.862,1.832-3.052
	c1.726,1.733,2.801,4.118,4.885,5.494c1.011-0.617,0.662-2.593,1.221-3.663c0.765,1.28,1.497,8.301,4.274,3.663
	c1.349,0.076,0.26,2.591,0.61,3.663c0.829-0.188,0.507-1.529,0.61-2.441c1.257,2.921,2.408,2.154,3.664,4.885
	c1.324,0.103,0.276-2.166,0.61-3.054c2.267,0.989,2.862,3.651,4.884,4.885c1.671-2.376,5.579-4.794,5.495-5.495
	c2.545-1.921,3.465,2.748,6.717,0.61c0.063,1.896-1.921,1.742-1.221,4.274c4.456,0.182,4.776-3.771,5.495-7.327
	c-1.616-1.582-3.922-3.839-6.716-2.442c1.614-1.56-0.835-1.211-2.442-1.221c-0.26-2.523-3.09-3.15-4.885-2.442
	c0.172-1.091-0.577-1.252-0.61-0.61c-0.856-0.216-0.053-1.075,0.61-1.221c-0.882-1.993-1.364-1.537-3.663-1.222
	c0.271,0.544,0.536,1.092,1.221,1.222c0.188,1.407-1.764,0.679-1.832,1.831c-2.049-0.558-0.302-1.136-0.61-3.053
	c-1.07,2.427-2.794,0.426-3.663,3.053c-2.255,0.358,0.761-3.297-3.054-2.441c-1.892-1.347,4.381,0.358,3.664-1.832
	c-0.18-1.703-4.61,2.44-4.274-0.611c-0.825,0.601-1.22,1.63-1.831,2.443c-0.625,0.071-1.236-2.635-1.832-0.611
	c-0.833-1.17-0.068-2.34,0.61-4.274c-1.923-0.295-1.382,1.875-3.663,1.221c1.497-2.066,1.066-4.799-2.442-4.884
	c0.794-0.813,0.375-1.843-0.611-2.441c0.147-1.575,1.05,0.837,2.442,0c-0.268-1.419-2.696-1.635-1.221-3.054
	c1.22,1.833,3.591,2.515,4.884,4.274c2.027-0.199-1.608-2.664,0.61-3.054c-0.851-1.184-3.16-0.91-4.274-1.831
	c0.077-1.35,2.59-0.26,3.664-0.611c0-0.61,0-1.221,0-1.832c-2.975,2.447-4.367-1.499-5.495-4.272
	c0.802,0.215,0.96,1.074,1.832,1.221c0.25-1.471-1.115-1.327-0.61-3.053c1.889-0.104,2.746,2.147,1.832,3.053
	c1.302,0.285,1.163-0.872,1.221-1.831c1.554,2.453,2.113,2.219,3.053,4.883c1.383-2.45,2.218,1.194,2.441-1.221
	c1.056,1.59,1.175,4.118,3.054,4.885c1.51-0.856,1.077-2.104,0.61-3.664c2.976,0.738,2.05-2.427,4.274-2.441
	c0.188,2.052-0.815,5.293,1.832,4.885c1.177-0.869,2.553-3.373,4.274-1.832c0.583-3.433-0.862-4.838-3.053-5.494
	c0.18-1.246,1.652-1.198,1.832-2.443c-2.426,0.016-2.126,2.759-4.885,2.443c-1.227-1.246,0.27-1.198,0.61-2.443
	c-1.944,0.295-2.555,1.923-4.884,1.832c1.75-1.822-1.779-1.81-1.222-4.274c-2.033,1.162-1.984,0.866-4.273,1.222
	c0.547-1.285,0.949-2.715,1.831-3.664c-1.389,0.297-3.118,1.213-4.273,0c-0.445-1.666,1.213-1.229,1.221-2.442
	c-0.558-1.66-1.134,1.625-3.052,0.61c1.39-0.946,1.153-1.271,0.61-3.053c-1.866,0.441-2.225-0.624-3.663-0.61
	c0.617-1.012,2.593-0.664,3.663-1.221c-0.519-1.791-1.537,0.794-3.053,0c1.841-2.288-1.762-3.21-1.832-5.496
	c0.493,0.526,1.672,0.363,1.832,1.222c1.803-0.531-1.417-0.914-0.61-2.442c0.813-0.091,1.842,2.482,2.442,0.61
	c2.054,3.466,1.567,2.682,4.274,5.495c0.906-0.267-0.241-0.781,0-1.832c0.879,0.683,1.489,0.658,1.831-0.611
	c0.794,1.445,1.019,3.459,1.832,4.885c2.199,0.367,1.799-1.864,3.663-1.832c0.25,1.988,1.275,3.203,2.442,4.274
	c0.906-0.267-0.24-0.781,0-1.832c1.214,0.008,0.776,1.667,2.442,1.222c0.522-3.041,3.72,0.173,3.664-3.664
	c1.348,0.076,0.26,2.59,0.61,3.664c0.342,1.378,0.952-0.741,1.832,0.61c1.829-0.402-0.583-1.305,0-2.442
	c1.245,0.18,1.197,1.652,2.442,1.832c0.494-0.117,0.609-0.613,1.221-0.61c-2.102-3.059-3.445-2.084-4.885-6.106
	c-2.618,1.747-3.284-2.11-6.105-0.61c-0.261-1.686,2.276-0.573,2.442-1.832c-0.876-1.032-4.175,0.675-4.884,1.832
	c-1.176-1.13-0.482-1.118-2.442-0.61c0.215-0.802,1.075-0.961,1.221-1.832c-1.332-0.389-1.942,1.731-1.831-0.61
	c-1.491,0.34-1.301,2.362-3.664,1.832c2.657-2.153-1.656-1.565,0-4.274c-2.489-0.454-2.102,1.969-4.884,1.221
	c1.005-2.854-0.138-1.164-2.442-1.221c-0.546-1.971,1.992-0.858,2.442-1.832c-0.397-0.622-1.404-0.632-1.221-1.832
	c-1.368,1.377-3.06-0.039-4.274-0.61c-0.1-1.729,3.764,0.508,3.664-1.221c-0.753-1.855-2.1,0.661-3.664,0
	c-0.95-2.171,2.074-0.369,1.832-1.832c-0.726-1.31-2.646-1.425-3.664-2.442c1.192-1.934,2.855,0.452,1.222-3.664
	c2.278,1.501,2.658,4.23,4.274,1.832c-0.563,4.479,3.57,3.005,4.273,4.884c1.464,0.242-0.338-2.781,1.832-1.832
	c-0.872,2.688-0.243,3.832,1.832,4.885c1.528,0.104,1.911-0.938,2.442-1.831c1.194,2.063,1.679,4.833,3.663,6.105
	c1.79-0.517-0.365-1.966,0-3.053c1.243,0.181,1.626,1.223,2.442,1.832c0.651-1.084,0.046-2.787,2.442-1.221
	c0.584-1.137-1.829-2.041,0-2.442c-0.915-1.324-3.055-1.422-3.053-3.664c-0.543,0.474-1.379,0.657-2.442,0.611
	c1.583-2.467-1.616-2.39,0.61-3.664c-0.166-1.438-2.704-0.374-2.442,0.611c-1.42-0.916-0.932-1.493-0.61-3.053
	c-1.879-0.455-1.174,1.676-3.053,1.221c-0.445-1.666,1.213-1.229,1.221-2.442c-0.267-0.907-0.781,0.241-1.832,0
	c1.388-1.693-2.518-2.003-2.441-4.274c0.61,0,1.221,0,1.831,0c0.161-1.992-1.899-1.764-2.442-3.053
	c0.694-1.995,2.042,0.151,2.442-2.442c1.013,0.819,0.458,3.205,2.442,3.053c2.212-0.267,0.143-4.377,3.053-2.442
	c-0.38-1.655-2.55-1.52-2.442-3.664c0.751,0.683,1.254,0.532,1.222-0.61c1.212-0.311,1.397,3.369,2.442,1.221
	c-0.337,1.374,1.723,3.968,3.052,3.053c-0.324,3.111,4.755,2.002,4.885,7.327c0.814,0,1.628,0,2.442,0
	c-0.525-0.493-0.362-1.672-1.221-1.832c0.761-1.497,2.395,1.21,3.053,1.832c1.07,0.169,3.046-1.719,3.663,0
	c1.829-0.401-0.584-1.305,0-2.442c1.074,0.147,1.392,1.05,1.221,2.442c2.731-1.365-3.277-4.676,1.221-4.274
	c-1.452-1.6-4.583-1.521-6.715-2.441c0.401-0.819,1.305-1.137,2.442-1.222c-2.294-0.466-3.641-4.016-4.884-0.61
	c0.368-1.812-2.559-1.548-1.222-3.664c-2.181,1.285-3.351,0.4-4.274,0.611c-1.221-0.675,0.981-3.516-2.442-3.053
	c2.638-2.337-1.521-0.958,0-3.663c-2.162,0.204-1.501,1.68-3.663,0.61c1.441-1.549-2.969-2.657-3.664-5.495c0.611,0,1.222,0,1.832,0
	c0.225-2.057-2.567-1.097-2.442-3.053c0.52-0.112,0.576,0.238,0.61,0.61c1.288-0.373,0.319-1.004-0.036-1.892
	c-17.25,14.15-34.454,28.361-51.467,42.406c-0.178,4.884-0.271,9.79-0.271,14.717c0,102.186,38.695,195.493,102.185,266.076
	c1.925-4.34,3.554-8.975,4.5-14.295c0.854,3.96,3.11,7.813,5.426,2.171c-2.958,6.38-3.304,13.249-2.321,20.372
	c9.242,9.715,18.977,18.953,29.147,27.699c5.338-19.108,10.652-38.24,16.584-56.753c1.217,18.752-13.829,45.382,1.085,59.689
	c4.358-16.028,7.556-29.245,9.768-48.837c2.919,9.806-1.242,21.9-1.085,32.558c2.583-3.93,3.203-9.82,4.341-15.193
	c0.481,13.227-3.524,25.734,3.256,36.898c4.789-21.618,1.922-50.894,8.682-70.542c1.007,30.828,4.94,58.729,5.426,90.077
	c6.262-9.737,7.962-24.753,2.17-35.813c3.305,0.674,2.121,5.837,5.426,6.512c1.882-9.695,0.819-22.334,1.085-33.644
	c2.354,9.946,4.998,19.602,9.768,27.132c3.234-5.8-1.39-13.057-1.085-19.535c1.84,2.861,3.213,6.192,3.256,10.853
	c4.292-8.008,6.087-18.512,10.853-26.046c-5.165,19.606-4.159,57.156,2.17,78.139c8.083-15.63,6.047-42.705-2.17-56.434
	c8.251,7.667,13.161,18.674,16.279,31.473c5.085-22.063,1.334-50.263-5.426-67.286c10.5,13.737,12.299,36.176,16.279,56.434
	c4.354-16.321,1.028-36.936-3.256-51.008c21.831,22.053,4.161,79.815,19.535,106.356c10.034-22.018-2.12-46.754-3.256-70.543
	c4.941,9.891,6.997,22.668,11.938,32.559c5.209-18.667,9.333-38.419,11.938-59.689c5.012,29.896-13.967,64.498-2.17,87.906
	c7.117-15.673,6.455-39.127,9.767-58.604c3.017,2.74,2.515,13.672,2.171,16.279c11.551-12.743,12.751-29.777,7.597-51.008
	c3.476,7.015,4.753,16.229,6.512,24.961c8.535,0.929-0.227-11.026,4.341-7.597c-0.954,3.807,3.578,1.891,3.256,0
	c0.047,8.165,9.26,29.105,14.108,35.813c4.454,14.12-4.479,37.772,1.085,49.923c10.273-29.65,18.071-80.981-3.256-104.186
	c12.345,9.362,23.396,29.419,24.961,53.178c3.968-13.035,6.994-27.012,8.682-42.325c2.295,18.307-4.091,40.901,4.341,56.434
	c5.839-20.206,9.753-42.339,13.023-65.116c1.644,26.969-5.666,54.385-7.597,81.396c5.032-23.185,8.069-48.364,14.108-70.542
	c1.936,7.018-1.671,17.85-2.17,26.046c2.94-2.486,2.97-7.883,4.341-11.938c-0.075,13.442,0.291,38.744,6.512,45.581
	c-0.396,3.36,1.633,10.572,3.256,15.193c3.165-17.64,0.554-38.896-6.512-49.922c8.63,6.567,13.822,25.968,15.194,43.41
	c10.319-23.621,2.24-50.333,1.085-79.225c3.726,8.937,3.976,21.348,6.512,31.473c3.208-12.983-1.545-27.388-4.341-37.983
	c8.008,11.526,12.455,26.614,13.023,45.581c1.521,0.328,1.922-0.465,2.085-1.493c-1.918,15.339-3.489,40.359,3.341,54.671
	c6.164-15.541,10.776-32.635,14.108-51.008c0.796,12.565-1.866,25.318,3.256,36.899c5.221-3.267,5.221-11.928,0-15.193
	c2.192-2.471,3.606,5.013,7.597,4.341c4.611-23.904-19.618-43.91-28.217-65.116c10.839,9.784,22.087,28.558,32.559,42.325
	c8.354-10.818,8.746-29.599,9.767-47.752c7.021,9.621,15.298,17.984,19.535,30.388c3.278-9.021,2.401-22.198,3.256-33.643
	c5.403,17.387,4.854,40.728,8.683,59.689c17.752-18.371,4.434-54.856-8.683-70.543c10.497,5.787,19.417,22.544,24.961,36.899
	c4.778-9.692,9.756-19.185,13.023-30.388c-2.188,19.021-15.455,36.245-7.597,60.775c6.344-5.955,1.434-20.202,1.085-29.303
	c4.014,11.26,6.379,17.056,7.597,27.132c5.326-15.655,11.702-30.262,23.876-39.069c-11.511,13.773-16.747,37.276-13.023,62.945
	c4.775-10.05,13.415-29.929,7.598-40.155c0.318-2.58,2.937,1.207,3.256,2.171c1.716-1.901,1.452-5.782,2.17-8.682
	c2.964-1.237-1.072,6.986,0,10.853c2.996-4.962,4.089-11.829,5.427-18.45c0.104,12.547-3.951,27.363,3.256,37.984
	c2.712-21.943,3.986-45.322,6.147-67.817c-4.722-0.839-8.31-4.954-8.31-9.917v-38.524h-45.673v-0.216H354.847
	c0.472,2.077,0.729,4.237,0.729,6.457c0,16.05-13.011,29.062-29.061,29.062s-29.061-13.012-29.061-29.062
	c0-2.22,0.257-4.38,0.729-6.457h-29.266c-5.229-5.978-10.102-16.316-14.413-28.13c-0.889,4.129-3.73,7.654-7.871,9.089
	c-6.441,2.23-13.559-1.44-15.898-8.197l-12.281-35.476c-2.339-6.756,0.986-14.041,7.428-16.271
	c6.441-2.229,13.558,1.439,15.897,8.196l0.964,2.782c-4.341-17.684-6.871-31.584-6.871-31.584
	c1.042-50.08,36.481-80.109,83.519-96.996l-1.163-20.226l55.873-11.333l2.424,17.662c60.526-9.129,125.001-4.286,158.606,3.995
	c21.755,5.361,36.395,21.748,42.576,30.964c27.251,40.623-16.592,128.604-35.206,162.152h36.281v-9.21
	c0-5.569,4.514-10.083,10.083-10.083c5.568,0,10.082,4.514,10.082,10.083v9.21h14.627c-0.958-1.436-1.519-3.159-1.519-5.016
	c0-4.995,4.048-9.043,9.043-9.043s9.044,4.048,9.044,9.043c0,1.911-0.597,3.683-1.607,5.143c3.133,0.604,5.499,3.357,5.499,6.667
	c0,3.753-3.042,6.795-6.795,6.795h-2.785h-5.278h-20.229v38.524c0,5.568-4.514,10.083-10.082,10.083
	c-0.251,0-0.497-0.02-0.743-0.037c4.353,26.67,4.629,57.418,6.931,86.139c6.793-8.216,6.791-26.453,1.085-35.814
	c3.32,1.383,3.191,6.215,6.512,7.598c0.987-10.227,1.373-21.055,1.085-32.559c3.786,9.678,4.994,27.458,4.342,37.984
	c10.402-3.41,13.707-23.143,17.363-36.898c-0.719,16.338-4.253,35.716-3.255,55.348c2.651-3.497,2.844-9.454,5.426-13.022
	c-1.43,7.488-1.218,18.334,0.699,27.881c2.024-1.248,4.036-2.513,6.036-3.796c0.036-13.554-0.846-27.995-6.735-34.938
	c2.924-1.79,4.125,7.414,7.597,8.682c2.818-18.929,12.875-36.672,1.086-53.178c11.544,9.203,9.09,26.574,14.108,43.41
	c2.08,6.979,5.312,12.672,8.16,19.201c3.283-2.464,6.525-4.979,9.729-7.541c-1.442-15.651-3.571-31.455-2.696-45.303
	c3.421,11.772,4.782,25.605,7.597,37.984c5.001-18.174,0.802-41.656-3.256-57.52c9.679,12.855,11.696,32.439,12.34,53.142
	c2.033-1.782,4.041-3.594,6.038-5.416c-0.687-4.706-1.378-9.409-2.099-14.082c1.508,3.95,2.938,7.979,4.333,12.045
	c8.813-8.172,17.257-16.738,25.304-25.667c-1.594-6.949-4.441-13.374-9.017-18.937c4.771,4.436,8.29,10.123,11.799,15.819
	c1.524-1.727,3.031-3.467,4.525-5.219c0.336-2.821,0.567-5.746,1.04-8.43c-0.228,2.592-0.31,5.103-0.297,7.562
	C782.756,607.732,818.291,517.937,818.291,419.998z M467.783,577.499V501.34h-53.278v76.159H467.783z M414.505,584.986v13.277
	h53.278v-13.277H414.505z M467.783,493.854v-22.382h-53.278v22.382H467.783z M475.049,463.4v30.453h100.68
	c3.341-19.539,2.433-37.722-6.459-50.7c-5.868-8.567-19.767-23.803-40.42-28.787c-65.884-15.897-256.761-18.172-281.466,79.487
	h54.106v-18.345h75.881v18.345h29.868V463.4H475.049z M351.966,606.335h55.274v-71.09h-29.868v16.952H301.49v-16.952h-52.124
	c5.422,23.059,15.167,58.113,26.758,71.09h24.941c4.951-8.96,14.49-15.029,25.451-15.029
	C337.476,591.306,347.016,597.375,351.966,606.335z M326.516,605.028c-8.471,0-15.338,6.867-15.338,15.338
	c0,8.472,6.867,15.339,15.338,15.339c8.471,0,15.338-6.867,15.338-15.339C341.854,611.896,334.986,605.028,326.516,605.028z
	 M307.082,516.301v30.246h30.305v-30.246H307.082z M337.386,511.405v-30.246h-30.305v30.246H337.386z M342.282,516.301v30.246
	h29.498v-30.246H342.282z M371.78,511.405v-30.246h-29.498v30.246H371.78z M475.049,606.335h53.461c0,0,20.842-33.077,35.344-71.09
	h-88.805V606.335z M412.518,164.242l-7.811,4.703l8.483,3.34l2.059,8.882l5.797-7.037l9.084,0.788l-4.899-7.688l3.555-8.396
	l-8.826,2.285l-6.886-5.976L412.518,164.242z M593.831,163.616l8.943-10.855l14.013,1.215l-7.558-11.86l5.483-12.952l-13.615,3.524
	l-10.623-9.218l-0.855,14.039l-12.05,7.254l13.087,5.152L593.831,163.616z M308.881,89.246l3.847,12.375l7.482-10.581l12.959,0.166
	l-7.751-10.387l4.162-12.273l-12.273,4.163l-10.387-7.751l0.166,12.959l-10.582,7.483L308.881,89.246z M178.919,171.123l3.815,7.523
	l3.65-7.604l8.334-1.304l-6.104-5.822l1.335-8.329l-7.423,4.007l-7.509-3.844l1.517,8.298l-5.976,5.954L178.919,171.123z
	 M400.987,87.295l3.815,7.524l3.65-7.605l8.334-1.304l-6.104-5.821l1.335-8.329l-7.423,4.006l-7.509-3.844l1.517,8.298l-5.976,5.954
	L400.987,87.295z M616.787,221.965l8.361,1.122l3.815,7.523l3.651-7.604l8.333-1.304l-6.104-5.822l1.335-8.329l-7.423,4.007
	l-7.509-3.844l1.517,8.298L616.787,221.965z M694.122,214.75l4.678-2.459l4.679,2.459l-0.895-5.209l3.785-3.689l-5.229-0.76
	l-2.34-4.739l-2.339,4.739l-5.23,0.76l3.786,3.689L694.122,214.75z M499.539,130.667l4.679-2.459l4.678,2.459l-0.895-5.209
	l3.786-3.689l-5.23-0.759l-2.339-4.74l-2.339,4.74l-5.23,0.759l3.785,3.689L499.539,130.667z M453.331,81.399l5.053,6.88
	l2.387-8.196l8.105-2.68l-7.057-4.803l-0.045-8.536l-6.749,5.227l-8.131-2.595l2.886,8.033l-4.982,6.932L453.331,81.399z
	 M122.904,228.639l5.053,6.88l2.387-8.196l8.105-2.68l-7.057-4.802l-0.044-8.536l-6.749,5.227l-8.131-2.595l2.886,8.033
	l-4.982,6.932L122.904,228.639z"/>
</svg>
